<?xml version="1.0" encoding="utf-8"?>
<!-- Generator: Adobe Illustrator 21.1.0, SVG Export Plug-In . SVG Version: 6.00 Build 0)  -->
<svg version="1.1" id="Layer_1" xmlns="http://www.w3.org/2000/svg" xmlns:xlink="http://www.w3.org/1999/xlink" x="0px" y="0px"
	 viewBox="0 0 220 22.1" style="enable-background:new 0 0 220 22.1;" xml:space="preserve">
<style type="text/css">
	.st0{fill:#FFFFFF;}
</style>
<g>
	<path class="st0" d="M11.5,7.7c-0.1-0.1-0.3-0.3-0.6-0.5c-0.3-0.2-0.7-0.4-1.1-0.6C9.4,6.5,8.9,6.3,8.4,6.2C7.9,6.1,7.4,6,6.9,6
		C6,6,5.3,6.2,4.8,6.5C4.4,6.9,4.1,7.3,4.1,7.9c0,0.4,0.1,0.6,0.3,0.9c0.2,0.2,0.4,0.4,0.7,0.6c0.3,0.2,0.7,0.3,1.2,0.5
		c0.5,0.1,1.1,0.3,1.7,0.5c0.8,0.2,1.6,0.5,2.3,0.7c0.7,0.3,1.3,0.6,1.7,1c0.5,0.4,0.8,0.8,1.1,1.4c0.3,0.5,0.4,1.2,0.4,2
		c0,0.9-0.2,1.7-0.5,2.3c-0.3,0.6-0.8,1.2-1.4,1.6c-0.6,0.4-1.3,0.7-2,0.9s-1.6,0.3-2.4,0.3c-1.3,0-2.6-0.2-3.8-0.6
		C2.1,19.5,1,19,0,18.3l1.5-2.9c0.1,0.1,0.4,0.3,0.8,0.6c0.4,0.2,0.8,0.5,1.3,0.7c0.5,0.2,1.1,0.4,1.7,0.6c0.6,0.2,1.3,0.2,1.9,0.2
		c1.8,0,2.8-0.6,2.8-1.8c0-0.4-0.1-0.7-0.3-0.9c-0.2-0.3-0.5-0.5-0.9-0.7c-0.4-0.2-0.9-0.4-1.4-0.5c-0.5-0.2-1.2-0.3-1.8-0.5
		c-0.8-0.2-1.5-0.5-2.1-0.7c-0.6-0.3-1.1-0.6-1.5-0.9c-0.4-0.4-0.7-0.8-0.9-1.2c-0.2-0.5-0.3-1-0.3-1.7c0-0.9,0.2-1.6,0.5-2.3
		C1.5,5.5,2,4.9,2.5,4.5c0.6-0.4,1.2-0.8,2-1S6.1,3.1,7,3.1c1.2,0,2.3,0.2,3.3,0.6c1,0.4,1.9,0.8,2.7,1.3L11.5,7.7z"/>
	<path class="st0" d="M15.1,20.3v-17h7.3c0.8,0,1.5,0.2,2.2,0.5c0.7,0.3,1.2,0.8,1.7,1.3c0.5,0.5,0.9,1.1,1.1,1.8
		c0.3,0.7,0.4,1.4,0.4,2.1c0,0.7-0.1,1.4-0.4,2.1s-0.6,1.3-1.1,1.8c-0.5,0.5-1,1-1.7,1.3c-0.7,0.3-1.4,0.5-2.2,0.5h-4.1v5.7H15.1z
		 M18.5,11.7h3.9c0.6,0,1.1-0.2,1.5-0.7s0.6-1.2,0.6-2c0-0.4-0.1-0.8-0.2-1.2c-0.1-0.3-0.3-0.6-0.5-0.9c-0.2-0.2-0.5-0.4-0.7-0.5
		c-0.3-0.1-0.6-0.2-0.9-0.2h-3.7V11.7z"/>
	<path class="st0" d="M33,3.2h3l6.5,17h-3.4L37.5,16h-6l-1.6,4.2h-3.4L33,3.2z M36.9,13.7L34.5,7L32,13.7H36.9z"/>
	<path class="st0" d="M42.7,11.6c0-1,0.2-2.1,0.6-3.1c0.4-1,0.9-1.9,1.7-2.7c0.7-0.8,1.6-1.4,2.7-1.9c1.1-0.5,2.2-0.7,3.6-0.7
		c1.6,0,3,0.3,4.1,1c1.2,0.7,2,1.6,2.6,2.7l-2.6,1.8c-0.2-0.5-0.5-0.9-0.8-1.2c-0.3-0.3-0.7-0.6-1-0.8c-0.4-0.2-0.8-0.3-1.2-0.4
		c-0.4-0.1-0.8-0.1-1.2-0.1c-0.8,0-1.6,0.2-2.2,0.5c-0.6,0.3-1.1,0.8-1.6,1.3C47,8.4,46.7,9,46.5,9.7s-0.3,1.4-0.3,2
		c0,0.8,0.1,1.5,0.4,2.2c0.2,0.7,0.6,1.3,1,1.8c0.4,0.5,1,1,1.6,1.3c0.6,0.3,1.3,0.5,2,0.5c0.4,0,0.8,0,1.2-0.1
		c0.4-0.1,0.8-0.2,1.2-0.5s0.7-0.5,1.1-0.8c0.3-0.3,0.6-0.7,0.8-1.2l2.7,1.6c-0.3,0.6-0.7,1.2-1.2,1.7c-0.5,0.5-1.1,0.9-1.7,1.2
		c-0.6,0.3-1.3,0.6-2,0.8s-1.4,0.3-2.1,0.3c-1.2,0-2.4-0.3-3.4-0.8c-1-0.5-1.9-1.2-2.6-2c-0.7-0.8-1.3-1.8-1.7-2.8
		C43,13.8,42.7,12.7,42.7,11.6z"/>
	<path class="st0" d="M72.4,17.4v2.9h-12v-17h11.7v2.9h-8.4v4.1H71v2.7h-7.2v4.4H72.4z"/>
	<path class="st0" d="M80.7,11.2L76.4,0h3.9l2.8,8.2L88.9,0h3.9l-8.3,11.2l4.1,10.9h-3.9l-2.6-7.9l-5.5,7.9h-3.9L80.7,11.2z"/>
	<path class="st0" d="M104.3,20.3V4.7h1.5v14.3h9v1.4H104.3z"/>
	<path class="st0" d="M122,4.7h1.3l6.5,15.6h-1.6l-2-4.9h-7l-2,4.9h-1.6L122,4.7z M125.8,14.2l-3.1-7.7l-3.2,7.7H125.8z"/>
	<path class="st0" d="M137.7,19c1,0,1.8-0.2,2.5-0.6c0.7-0.4,1.2-0.9,1.6-1.5c0.4-0.6,0.7-1.3,0.8-2.1c0.2-0.8,0.2-1.6,0.2-2.4V4.7
		h1.5v7.9c0,1.1-0.1,2.1-0.4,3c-0.2,0.9-0.6,1.8-1.1,2.5c-0.5,0.7-1.2,1.3-2,1.7s-1.9,0.6-3.1,0.6c-1.2,0-2.3-0.2-3.1-0.7
		c-0.8-0.4-1.5-1-2-1.8c-0.5-0.7-0.9-1.6-1.1-2.5c-0.2-0.9-0.3-1.9-0.3-2.9V4.7h1.5v7.9c0,0.8,0.1,1.6,0.2,2.4
		c0.2,0.8,0.4,1.5,0.8,2.1c0.4,0.6,0.9,1.1,1.6,1.5C135.9,18.8,136.7,19,137.7,19z"/>
	<path class="st0" d="M149.5,7.5v12.8h-1.5V4.7h1.2l10.3,13v-13h1.5v15.6h-1.3L149.5,7.5z"/>
	<path class="st0" d="M163.9,12.4c0-0.9,0.2-1.9,0.5-2.8c0.3-0.9,0.8-1.8,1.4-2.5c0.6-0.7,1.4-1.3,2.3-1.8c0.9-0.5,2-0.7,3.1-0.7
		c1.4,0,2.6,0.3,3.6,0.9c1,0.6,1.7,1.5,2.2,2.5l-1.2,0.7c-0.2-0.5-0.6-0.9-0.9-1.3s-0.7-0.6-1.2-0.9c-0.4-0.2-0.8-0.4-1.3-0.5
		C172.1,6,171.6,6,171.2,6c-0.9,0-1.8,0.2-2.5,0.6c-0.7,0.4-1.3,0.9-1.8,1.5c-0.5,0.6-0.9,1.3-1.1,2.1s-0.4,1.6-0.4,2.3
		c0,0.9,0.2,1.7,0.5,2.5c0.3,0.8,0.7,1.5,1.2,2.1c0.5,0.6,1.1,1.1,1.8,1.5c0.7,0.4,1.5,0.5,2.3,0.5c0.4,0,0.9-0.1,1.4-0.2
		s0.9-0.3,1.3-0.5c0.4-0.2,0.8-0.5,1.2-0.9c0.4-0.4,0.7-0.8,0.9-1.3l1.3,0.7c-0.2,0.6-0.6,1.1-1.1,1.6s-1,0.8-1.5,1.1
		c-0.6,0.3-1.1,0.5-1.8,0.7c-0.6,0.2-1.2,0.2-1.8,0.2c-1.1,0-2.1-0.2-2.9-0.7s-1.7-1.1-2.3-1.8c-0.6-0.8-1.1-1.6-1.5-2.6
		S163.9,13.4,163.9,12.4z"/>
	<path class="st0" d="M192.3,4.7v15.6h-1.5V13h-9.3v7.3H180V4.7h1.5v7h9.3v-7H192.3z"/>
	<path class="st0" d="M206.7,18.9v1.4h-10.5V4.7h10.3V6h-8.8v5.6h7.6V13h-7.6v6H206.7z"/>
	<path class="st0" d="M218.4,7.6c-0.4-0.5-1-0.9-1.8-1.2c-0.7-0.3-1.6-0.5-2.5-0.5c-1.4,0-2.4,0.3-3,0.8c-0.6,0.5-0.9,1.2-0.9,2.1
		c0,0.5,0.1,0.9,0.3,1.2c0.2,0.3,0.4,0.6,0.8,0.8c0.4,0.2,0.8,0.4,1.4,0.6c0.5,0.2,1.2,0.3,1.9,0.5c0.8,0.2,1.6,0.4,2.3,0.6
		c0.7,0.2,1.2,0.5,1.7,0.8c0.5,0.3,0.8,0.7,1.1,1.2c0.2,0.5,0.4,1.1,0.4,1.8c0,0.7-0.1,1.3-0.4,1.9c-0.3,0.5-0.7,1-1.2,1.3
		s-1.1,0.6-1.8,0.8c-0.7,0.2-1.4,0.3-2.3,0.3c-2.4,0-4.5-0.8-6.3-2.3l0.8-1.3c0.3,0.3,0.6,0.6,1,0.8c0.4,0.3,0.8,0.5,1.3,0.7
		c0.5,0.2,1,0.4,1.5,0.5s1.1,0.2,1.7,0.2c1.2,0,2.2-0.2,2.9-0.7c0.7-0.4,1-1.1,1-2c0-0.5-0.1-0.9-0.3-1.2c-0.2-0.3-0.5-0.6-0.9-0.9
		c-0.4-0.2-0.9-0.5-1.5-0.6c-0.6-0.2-1.3-0.4-2-0.5c-0.8-0.2-1.5-0.4-2.2-0.6c-0.6-0.2-1.1-0.5-1.6-0.8s-0.7-0.7-1-1.1
		c-0.2-0.4-0.3-1-0.3-1.6c0-0.7,0.1-1.4,0.4-1.9c0.3-0.6,0.7-1,1.2-1.4s1.1-0.7,1.8-0.9c0.7-0.2,1.4-0.3,2.2-0.3c1,0,2,0.2,2.8,0.5
		s1.6,0.8,2.2,1.3L218.4,7.6z"/>
</g>
</svg>
